<mxfile host="app.diagrams.net" modified="2020-08-01T01:22:33.954Z" agent="5.0 (Windows NT 10.0; Win64; x64) AppleWebKit/537.36 (KHTML, like Gecko) Chrome/84.0.4147.105 Safari/537.36" etag="Y6oeA3sf-Y8PdFv6otPN" version="13.5.8" type="github">
  <diagram name="Page-1" id="efa7a0a1-bf9b-a30e-e6df-94a7791c09e9">
    <mxGraphModel dx="2307" dy="1963" grid="1" gridSize="10" guides="1" tooltips="1" connect="1" arrows="1" fold="1" page="1" pageScale="1" pageWidth="826" pageHeight="1169" background="#ffffff" math="0" shadow="0">
      <root>
        <mxCell id="0" />
        <mxCell id="1" parent="0" />
        <mxCell id="7CSLmzTTnfZizkmmxESX-173" value="" style="whiteSpace=wrap;html=1;aspect=fixed;fillColor=#647687;strokeColor=#314354;fontColor=#ffffff;" vertex="1" parent="1">
          <mxGeometry x="-720" y="1070" width="520" height="520" as="geometry" />
        </mxCell>
        <mxCell id="7CSLmzTTnfZizkmmxESX-169" value="" style="whiteSpace=wrap;html=1;aspect=fixed;fillColor=#647687;strokeColor=#314354;fontColor=#ffffff;" vertex="1" parent="1">
          <mxGeometry x="40" y="-700" width="650" height="650" as="geometry" />
        </mxCell>
        <mxCell id="7CSLmzTTnfZizkmmxESX-148" value="" style="whiteSpace=wrap;html=1;aspect=fixed;fillColor=#647687;strokeColor=#314354;fontColor=#ffffff;" vertex="1" parent="1">
          <mxGeometry x="820" y="500" width="520" height="520" as="geometry" />
        </mxCell>
        <mxCell id="7CSLmzTTnfZizkmmxESX-143" value="" style="whiteSpace=wrap;html=1;aspect=fixed;fillColor=#647687;strokeColor=#314354;fontColor=#ffffff;" vertex="1" parent="1">
          <mxGeometry x="40" y="670" width="480" height="480" as="geometry" />
        </mxCell>
        <mxCell id="7CSLmzTTnfZizkmmxESX-152" value="" style="edgeStyle=orthogonalEdgeStyle;rounded=1;orthogonalLoop=1;jettySize=auto;html=1;strokeWidth=1;" edge="1" parent="1" source="7CSLmzTTnfZizkmmxESX-137">
          <mxGeometry relative="1" as="geometry">
            <mxPoint x="1080" y="550" as="targetPoint" />
          </mxGeometry>
        </mxCell>
        <mxCell id="7CSLmzTTnfZizkmmxESX-137" value="" style="whiteSpace=wrap;html=1;aspect=fixed;fillColor=#647687;strokeColor=#314354;fontColor=#ffffff;" vertex="1" parent="1">
          <mxGeometry x="520" y="20" width="430" height="430" as="geometry" />
        </mxCell>
        <mxCell id="7CSLmzTTnfZizkmmxESX-114" value="" style="whiteSpace=wrap;html=1;aspect=fixed;fillColor=#647687;strokeColor=#314354;fontColor=#ffffff;" vertex="1" parent="1">
          <mxGeometry x="40" y="270" width="320" height="320" as="geometry" />
        </mxCell>
        <mxCell id="7CSLmzTTnfZizkmmxESX-136" value="" style="edgeStyle=orthogonalEdgeStyle;rounded=0;orthogonalLoop=1;jettySize=auto;html=1;" edge="1" parent="1" source="7CSLmzTTnfZizkmmxESX-115" target="7CSLmzTTnfZizkmmxESX-120">
          <mxGeometry relative="1" as="geometry">
            <Array as="points">
              <mxPoint x="200" y="360" />
              <mxPoint x="140" y="360" />
            </Array>
          </mxGeometry>
        </mxCell>
        <mxCell id="7CSLmzTTnfZizkmmxESX-172" value="" style="edgeStyle=orthogonalEdgeStyle;rounded=1;orthogonalLoop=1;jettySize=auto;html=1;strokeWidth=1;" edge="1" parent="1" source="7CSLmzTTnfZizkmmxESX-115">
          <mxGeometry relative="1" as="geometry">
            <mxPoint x="222.5" y="-645" as="targetPoint" />
            <Array as="points">
              <mxPoint x="200" y="20" />
              <mxPoint x="-110" y="20" />
              <mxPoint x="-110" y="-645" />
            </Array>
          </mxGeometry>
        </mxCell>
        <mxCell id="7CSLmzTTnfZizkmmxESX-115" value="PROJETO" style="rounded=1;whiteSpace=wrap;html=1;fillColor=#b1ddf0;strokeColor=#10739e;" vertex="1" parent="1">
          <mxGeometry x="57.5" y="290" width="285" height="20" as="geometry" />
        </mxCell>
        <mxCell id="7CSLmzTTnfZizkmmxESX-135" value="" style="edgeStyle=orthogonalEdgeStyle;rounded=0;orthogonalLoop=1;jettySize=auto;html=1;" edge="1" parent="1" target="7CSLmzTTnfZizkmmxESX-122">
          <mxGeometry relative="1" as="geometry">
            <mxPoint x="127" y="410" as="sourcePoint" />
          </mxGeometry>
        </mxCell>
        <mxCell id="7CSLmzTTnfZizkmmxESX-147" value="" style="edgeStyle=orthogonalEdgeStyle;rounded=0;orthogonalLoop=1;jettySize=auto;html=1;" edge="1" parent="1" source="7CSLmzTTnfZizkmmxESX-119" target="7CSLmzTTnfZizkmmxESX-146">
          <mxGeometry relative="1" as="geometry">
            <Array as="points">
              <mxPoint x="70" y="570" />
              <mxPoint x="280" y="570" />
            </Array>
          </mxGeometry>
        </mxCell>
        <mxCell id="7CSLmzTTnfZizkmmxESX-119" value="BANCO DE DADOS" style="rounded=1;whiteSpace=wrap;html=1;fillColor=#1ba1e2;strokeColor=#006EAF;fontColor=#ffffff;" vertex="1" parent="1">
          <mxGeometry x="60" y="350" width="135" height="20" as="geometry" />
        </mxCell>
        <mxCell id="7CSLmzTTnfZizkmmxESX-142" value="" style="edgeStyle=orthogonalEdgeStyle;rounded=0;orthogonalLoop=1;jettySize=auto;html=1;" edge="1" parent="1" source="7CSLmzTTnfZizkmmxESX-120" target="7CSLmzTTnfZizkmmxESX-141">
          <mxGeometry relative="1" as="geometry">
            <Array as="points">
              <mxPoint x="370" y="420" />
              <mxPoint x="370" y="50" />
            </Array>
          </mxGeometry>
        </mxCell>
        <mxCell id="7CSLmzTTnfZizkmmxESX-159" value="" style="edgeStyle=orthogonalEdgeStyle;rounded=0;orthogonalLoop=1;jettySize=auto;html=1;" edge="1" parent="1" source="7CSLmzTTnfZizkmmxESX-120">
          <mxGeometry relative="1" as="geometry">
            <mxPoint x="110" y="370" as="targetPoint" />
            <Array as="points">
              <mxPoint x="110" y="370" />
            </Array>
          </mxGeometry>
        </mxCell>
        <mxCell id="7CSLmzTTnfZizkmmxESX-120" value="BACKEND" style="rounded=1;whiteSpace=wrap;html=1;fillColor=#e1d5e7;strokeColor=#9673a6;" vertex="1" parent="1">
          <mxGeometry x="80" y="410" width="175" height="20" as="geometry" />
        </mxCell>
        <mxCell id="7CSLmzTTnfZizkmmxESX-157" value="" style="edgeStyle=orthogonalEdgeStyle;rounded=0;orthogonalLoop=1;jettySize=auto;html=1;" edge="1" parent="1" source="7CSLmzTTnfZizkmmxESX-122">
          <mxGeometry relative="1" as="geometry">
            <mxPoint x="187.5" y="430" as="targetPoint" />
            <Array as="points">
              <mxPoint x="140" y="470" />
              <mxPoint x="140" y="450" />
              <mxPoint x="188" y="450" />
            </Array>
          </mxGeometry>
        </mxCell>
        <mxCell id="7CSLmzTTnfZizkmmxESX-122" value="FRONTEND" style="rounded=1;whiteSpace=wrap;html=1;fillColor=#76608a;strokeColor=#432D57;fontColor=#ffffff;" vertex="1" parent="1">
          <mxGeometry x="150" y="460" width="135" height="20" as="geometry" />
        </mxCell>
        <mxCell id="7CSLmzTTnfZizkmmxESX-161" value="" style="edgeStyle=orthogonalEdgeStyle;rounded=0;orthogonalLoop=1;jettySize=auto;html=1;" edge="1" parent="1" source="7CSLmzTTnfZizkmmxESX-141">
          <mxGeometry relative="1" as="geometry">
            <mxPoint x="1080" y="550" as="targetPoint" />
          </mxGeometry>
        </mxCell>
        <mxCell id="7CSLmzTTnfZizkmmxESX-141" value="BACKEND" style="rounded=1;whiteSpace=wrap;html=1;fillColor=#e1d5e7;strokeColor=#9673a6;" vertex="1" parent="1">
          <mxGeometry x="670" y="40" width="130" height="20" as="geometry" />
        </mxCell>
        <mxCell id="7CSLmzTTnfZizkmmxESX-146" value="BANCO DE DADOS" style="rounded=1;whiteSpace=wrap;html=1;fillColor=#1ba1e2;strokeColor=#006EAF;fontColor=#ffffff;" vertex="1" parent="1">
          <mxGeometry x="212.5" y="720" width="135" height="20" as="geometry" />
        </mxCell>
        <mxCell id="7CSLmzTTnfZizkmmxESX-155" value="" style="edgeStyle=orthogonalEdgeStyle;rounded=0;orthogonalLoop=1;jettySize=auto;html=1;" edge="1" parent="1" source="7CSLmzTTnfZizkmmxESX-153">
          <mxGeometry relative="1" as="geometry">
            <mxPoint x="217.5" y="480" as="targetPoint" />
          </mxGeometry>
        </mxCell>
        <mxCell id="7CSLmzTTnfZizkmmxESX-153" value="FRONTEND" style="rounded=1;whiteSpace=wrap;html=1;fillColor=#76608a;strokeColor=#432D57;fontColor=#ffffff;" vertex="1" parent="1">
          <mxGeometry x="1012.5" y="550" width="135" height="20" as="geometry" />
        </mxCell>
        <mxCell id="7CSLmzTTnfZizkmmxESX-162" value="&lt;font color=&quot;#ffffff&quot; style=&quot;font-size: 19px&quot;&gt;WEB APP ( ANGULAR )&lt;/font&gt;" style="rounded=1;whiteSpace=wrap;html=1;fillColor=#6a00ff;strokeColor=#3700CC;fontColor=#ffffff;" vertex="1" parent="1">
          <mxGeometry x="920" y="620" width="320" height="70" as="geometry" />
        </mxCell>
        <mxCell id="7CSLmzTTnfZizkmmxESX-163" value="&lt;font style=&quot;font-size: 19px&quot; color=&quot;#ffffff&quot;&gt;MOBILE ( REACT NATIVE )&lt;/font&gt;" style="rounded=1;whiteSpace=wrap;html=1;fillColor=#1ba1e2;strokeColor=#006EAF;fontColor=#ffffff;" vertex="1" parent="1">
          <mxGeometry x="919" y="750" width="320" height="70" as="geometry" />
        </mxCell>
        <mxCell id="7CSLmzTTnfZizkmmxESX-164" value="&lt;font style=&quot;font-size: 19px&quot; color=&quot;#ffffff&quot;&gt;DESKTOP ( ELECTRON )&lt;/font&gt;" style="rounded=1;whiteSpace=wrap;html=1;fillColor=#d80073;strokeColor=#A50040;fontColor=#ffffff;" vertex="1" parent="1">
          <mxGeometry x="920" y="880" width="320" height="70" as="geometry" />
        </mxCell>
        <mxCell id="7CSLmzTTnfZizkmmxESX-166" value="&lt;font color=&quot;#ffffff&quot; style=&quot;font-size: 24px&quot;&gt;NODE.JS&lt;/font&gt;" style="rounded=1;whiteSpace=wrap;html=1;fillColor=#008a00;strokeColor=#005700;fontColor=#ffffff;" vertex="1" parent="1">
          <mxGeometry x="565" y="165" width="340" height="140" as="geometry" />
        </mxCell>
        <mxCell id="7CSLmzTTnfZizkmmxESX-175" value="" style="edgeStyle=orthogonalEdgeStyle;rounded=1;orthogonalLoop=1;jettySize=auto;html=1;strokeWidth=1;" edge="1" parent="1" source="7CSLmzTTnfZizkmmxESX-167" target="7CSLmzTTnfZizkmmxESX-174">
          <mxGeometry relative="1" as="geometry" />
        </mxCell>
        <mxCell id="7CSLmzTTnfZizkmmxESX-167" value="&lt;font color=&quot;#ffffff&quot; style=&quot;font-size: 20px&quot;&gt;CLEARDB (MYSQL) - INICIALMENTE&lt;/font&gt;" style="rounded=1;whiteSpace=wrap;html=1;fillColor=#6d8764;strokeColor=#3A5431;fontColor=#ffffff;" vertex="1" parent="1">
          <mxGeometry x="100" y="800" width="360" height="105" as="geometry" />
        </mxCell>
        <mxCell id="7CSLmzTTnfZizkmmxESX-168" value="&lt;font color=&quot;#ffffff&quot; style=&quot;font-size: 20px&quot;&gt;MARIADB OU COSMODB OU MONGODB&lt;br&gt;&amp;nbsp;( EXPANSÃO )&lt;/font&gt;" style="rounded=1;whiteSpace=wrap;html=1;fillColor=#6a00ff;strokeColor=#3700CC;fontColor=#ffffff;" vertex="1" parent="1">
          <mxGeometry x="100" y="970" width="360" height="105" as="geometry" />
        </mxCell>
        <mxCell id="7CSLmzTTnfZizkmmxESX-170" value="&lt;font color=&quot;#ffffff&quot; style=&quot;font-size: 16px&quot;&gt;PROPOSTA DO PROJETO&lt;/font&gt;" style="rounded=1;whiteSpace=wrap;html=1;fillColor=#fa6800;strokeColor=#C73500;fontColor=#ffffff;" vertex="1" parent="1">
          <mxGeometry x="183.75" y="-660" width="362.5" height="30" as="geometry" />
        </mxCell>
        <mxCell id="7CSLmzTTnfZizkmmxESX-174" value="&lt;font color=&quot;#ffffff&quot; style=&quot;font-size: 20px&quot;&gt;CLEARDB TABELAS&lt;/font&gt;" style="rounded=1;whiteSpace=wrap;html=1;fillColor=#6d8764;strokeColor=#3A5431;fontColor=#ffffff;" vertex="1" parent="1">
          <mxGeometry x="-640" y="1110" width="360" height="40" as="geometry" />
        </mxCell>
      </root>
    </mxGraphModel>
  </diagram>
</mxfile>
